<svg xmlns="http://www.w3.org/2000/svg" viewBox="0 0 128 128"><defs><style>.a{fill:#0160aa;}.b{fill:#fff;}</style></defs><path class="a" d="M119.87,44.28v6.4a12.78,12.78,0,0,0-5.74-4.53l-16.73,17c0,.11,0,.22,0,.34,0,6.9,1.63,12.57,5.06,15.9l25.34-20.27a63.48,63.48,0,0,0-5.41-21.29L117,43.24A19.79,19.79,0,0,1,119.87,44.28Z"/><path class="a" d="M82.46,63.87C82.46,79.1,71.63,84.42,63.58,85v0a7.34,7.34,0,0,1-1,.07L33.78,120.42c1.37.74,2.77,1.41,4.2,2l50.35-51a24.89,24.89,0,0,1-1-7.14c0-12.92,9.7-22,22.48-22a27.11,27.11,0,0,1,6.52.78l5.78-5.86a63.93,63.93,0,0,0-8.93-14.13L82.33,60.91C82.41,61.85,82.46,62.83,82.46,63.87Z"/><path class="a" d="M82.23,60.07l30.56-37.46a64.26,64.26,0,0,0-12.22-11.12L76.27,48C79.28,50.56,81.54,54.44,82.23,60.07Z"/><path class="a" d="M110.81,82.54a15.62,15.62,0,0,0,9-3.3l1.51,3.3c-1.77,1.38-4.93,3.31-11.61,3.31a25.68,25.68,0,0,1-11.4-2.46l-52.51,42a65,65,0,0,0,7.92,1.81l71.52-44.71A64,64,0,0,0,128,64c0-1.41-.06-2.8-.15-4.19L102.91,79.75A11.61,11.61,0,0,0,110.81,82.54Z"/><path class="a" d="M106.77,111.6,72.09,127.47A63.72,63.72,0,0,0,106.77,111.6Z"/><path class="a" d="M24.52,114.35,45.62,73V53.65L34.06,81.88a13.93,13.93,0,0,0,5.09-2.64l1.51,3.3a15.12,15.12,0,0,1-8.15,3.12L21.72,112C22.63,112.82,23.56,113.6,24.52,114.35Z"/><path class="a" d="M64,128c2.08,0,4.13-.11,6.16-.3l38-17.39a64,64,0,0,0,16.87-27l-70.35,44A65.26,65.26,0,0,0,64,128Z"/><path class="a" d="M13,80.2A18.94,18.94,0,0,1,8.16,73L6.76,92.62a64.14,64.14,0,0,0,3.55,6.2Z"/><path class="a" d="M21.24,111.61l10.6-25.88c-.86.07-1.78.12-2.79.12a30.65,30.65,0,0,1-3.22-.18l-7.48,23.17C19.28,109.79,20.24,110.71,21.24,111.61Z"/><path class="a" d="M14.87,105c1,1.15,2,2.25,3,3.33l7.34-22.75a24.81,24.81,0,0,1-5.69-1.39Z"/><path class="a" d="M26.38,82,37.21,48.48a11.25,11.25,0,0,0-7.95-3c-.36,0-.71,0-1.07.07L20.84,78.36A11,11,0,0,0,26.38,82Z"/><path class="a" d="M63.58,43.15v0a22.26,22.26,0,0,1,12.23,4.43l24.27-36.42A63.71,63.71,0,0,0,82.24,2.65L61.62,43C62.27,43.05,62.92,43.09,63.58,43.15Z"/><path class="a" d="M110,45.43c-7.73,0-12.2,6.84-12.54,16.8L113.5,45.94A12.28,12.28,0,0,0,110,45.43Z"/><path class="a" d="M54.61,79.36l16.46-24.7a11.81,11.81,0,0,0-7.49-7.29h0a17.85,17.85,0,0,0-3.74-.86L54.61,56.75Z"/><path class="a" d="M6.64,64.31A22.85,22.85,0,0,1,8.9,54.22l1.84-25.7A64.06,64.06,0,0,0,6.23,91.58l1.43-20A25.13,25.13,0,0,1,6.64,64.31Z"/><path class="a" d="M50.81,85.07H45.62V74.35L25,114.73q2,1.53,4.11,2.91Z"/><path class="a" d="M97.77,83.08a18.89,18.89,0,0,1-9.23-11l-50,50.65a62.07,62.07,0,0,0,6.56,2.44Z"/><path class="a" d="M16.69,63.45c0,5.88,1.2,10.87,3.68,14.27l7.2-32.16C20.58,46.54,16.69,53.6,16.69,63.45Z"/><path class="a" d="M54.61,46.23v9.2l4.59-9A42,42,0,0,0,54.61,46.23Z"/><path class="a" d="M54.61,81.71a27.14,27.14,0,0,0,9-1.16h0c5-1.8,9-6,9-16.44a27.16,27.16,0,0,0-1.23-8.73L54.61,80.45Z"/><path class="a" d="M39.17,50.68A17.76,17.76,0,0,0,37.69,49L27,82.18a12.63,12.63,0,0,0,6.38-.1l12.29-30V43h3.72L66.92.07C66,0,65,0,64,0A64.07,64.07,0,0,0,53.2.93l-14,43.42Z"/><path class="a" d="M29.61,118c1.19.76,2.39,1.49,3.63,2.17l28.6-35.06H51.53Z"/><path class="a" d="M28.3,42.3l8.06-36A64.09,64.09,0,0,0,22.87,15L18.65,44.59A23.91,23.91,0,0,1,28.3,42.3Z"/><path class="a" d="M29.12,42.28a25.15,25.15,0,0,1,9.52,1.78l13.89-43A63.37,63.37,0,0,0,37.05,6L28.91,42.28Z"/><path class="a" d="M18,44.92l4.19-29.34a64.17,64.17,0,0,0-10.77,12L9.59,52.93A20.9,20.9,0,0,1,18,44.92Z"/><path class="a" d="M19,84a19.65,19.65,0,0,1-5.46-3.32l-2.7,18.94q1.68,2.5,3.58,4.83Z"/><path class="b" d="M9.59,52.93l1.82-25.38c-.23.32-.46.64-.67,1L8.9,54.22Q9.23,53.56,9.59,52.93Z"/><path class="b" d="M8.16,73c-.18-.47-.35-1-.5-1.45l-1.43,20c.17.35.35.69.53,1Z"/><path class="b" d="M18.65,44.59,22.87,15l-.69.6L18,44.92Z"/><path class="b" d="M13,80.2,10.31,98.82c.17.25.33.52.5.77l2.7-18.94C13.33,80.5,13.14,80.36,13,80.2Z"/><path class="b" d="M14.87,105,19.53,84.2,19,84l-4.58,20.45Z"/><path class="b" d="M28.91,42.28,37.05,6l-.69.31-8.06,36Z"/><path class="b" d="M28.19,45.5a6.2,6.2,0,0,0-.62.06l-7.2,32.16a7.52,7.52,0,0,0,.47.64Z"/><path class="b" d="M18.35,108.84l7.48-23.17-.61-.08-7.34,22.75C18,108.51,18.19,108.67,18.35,108.84Z"/><path class="b" d="M37.21,48.48,26.38,82c.19.06.38.13.57.17L37.69,49C37.54,48.79,37.38,48.64,37.21,48.48Z"/><path class="b" d="M39.17,44.28v.07L53.2.93c-.23,0-.45.07-.67.12l-13.89,43Z"/><path class="b" d="M50,43,67.56.1l-.64,0L49.34,43Z"/><path class="b" d="M21.72,112,32.51,85.66l-.67.07-10.6,25.88C21.39,111.75,21.56,111.88,21.72,112Z"/><path class="b" d="M45.62,53.65V52.07l-12.29,30c.25-.06.49-.12.73-.2Z"/><path class="b" d="M39.15,79.24a13.93,13.93,0,0,1-5.09,2.64c-.24.08-.48.14-.73.2a12.63,12.63,0,0,1-6.38.1c-.19,0-.38-.11-.57-.17a11,11,0,0,1-5.54-3.65,7.52,7.52,0,0,1-.47-.64c-2.48-3.4-3.68-8.39-3.68-14.27,0-9.85,3.89-16.91,10.88-17.89a6.2,6.2,0,0,1,.62-.06c.36,0,.71-.07,1.07-.07a11.25,11.25,0,0,1,8,3c.17.16.33.31.48.47a17.76,17.76,0,0,1,1.48,1.73v-6.4l-.53-.22a25.15,25.15,0,0,0-9.52-1.78h-.21l-.61,0a23.91,23.91,0,0,0-9.65,2.29l-.66.33a20.9,20.9,0,0,0-8.4,8q-.36.63-.69,1.29A22.85,22.85,0,0,0,6.64,64.31a25.13,25.13,0,0,0,1,7.24c.15.5.32,1,.5,1.45A18.94,18.94,0,0,0,13,80.2c.17.16.36.3.54.45A19.65,19.65,0,0,0,19,84l.56.23a24.81,24.81,0,0,0,5.69,1.39l.61.08a30.65,30.65,0,0,0,3.22.18c1,0,1.93,0,2.79-.12l.67-.07a15.12,15.12,0,0,0,8.15-3.12Z"/><path class="b" d="M59.84,46.52l-.64-.08-4.59,9v1.32Z"/><path class="b" d="M25,114.73,45.62,74.35V73l-21.1,41.33Z"/><path class="b" d="M61,43l.62,0L82.24,2.65l-.59-.16L61,43Z"/><path class="b" d="M54.61,80.45,71.32,55.37c-.08-.24-.16-.48-.25-.71L54.61,79.36Z"/><path class="b" d="M76.27,48l24.3-36.46-.49-.35L75.81,47.56C76,47.69,76.12,47.81,76.27,48Z"/><path class="b" d="M29.11,117.64l.5.32L51.53,85.07h-.72Z"/><path class="b" d="M61.84,85.07l-28.6,35.06.54.29L62.62,85.07h-.78Z"/><path class="b" d="M82.33,60.91l30.86-37.84c-.13-.16-.26-.31-.4-.46L82.23,60.07C82.27,60.34,82.3,60.62,82.33,60.91Z"/><path class="b" d="M88.54,72.08c-.07-.21-.15-.42-.21-.63L38,122.47l.59.26Z"/><path class="b" d="M117,43.24l5.38-5.45c-.09-.2-.17-.4-.26-.59l-5.78,5.86C116.56,43.11,116.78,43.18,117,43.24Z"/><path class="b" d="M97.42,62.23c0,.29,0,.58,0,.88l16.73-17c-.2-.08-.42-.15-.63-.21Z"/><path class="b" d="M102.91,79.75l24.94-19.94-.06-.73L102.45,79.35Z"/><path class="b" d="M45.13,125.17l.71.2,52.51-42a6.45,6.45,0,0,1-.58-.31Z"/><path class="b" d="M119.85,79.24a15.62,15.62,0,0,1-9,3.3,11.61,11.61,0,0,1-7.9-2.79l-.46-.4c-3.43-3.33-5.06-9-5.06-15.9,0-.12,0-.23,0-.34,0-.3,0-.59,0-.88.34-10,4.81-16.8,12.54-16.8a12.28,12.28,0,0,1,3.54.51c.21.06.43.13.63.21a12.78,12.78,0,0,1,5.74,4.53v-6.4a19.79,19.79,0,0,0-2.87-1c-.22-.06-.44-.13-.66-.18a27.11,27.11,0,0,0-6.52-.78c-12.78,0-22.48,9.11-22.48,22a24.89,24.89,0,0,0,1,7.14c.06.21.14.42.21.63a18.89,18.89,0,0,0,9.23,11,6.45,6.45,0,0,0,.58.31,25.68,25.68,0,0,0,11.4,2.46c6.68,0,9.84-1.93,11.61-3.31Z"/><path class="b" d="M54.67,127.32l70.35-44c.09-.29.17-.58.26-.87L53.76,127.18Z"/><path class="b" d="M72.09,127.47l34.68-15.87c.47-.42.92-.85,1.38-1.29l-38,17.39C70.81,127.64,71.45,127.55,72.09,127.47Z"/><path class="b" d="M82.33,60.91c0-.29-.06-.57-.1-.84-.69-5.63-3-9.51-6-12.12-.15-.14-.31-.26-.46-.39a22.26,22.26,0,0,0-12.23-4.43v0c-.66-.06-1.31-.1-2-.12L61,43H45.62V85.07h17a7.34,7.34,0,0,0,1-.07v0c8-.56,18.88-5.88,18.88-21.11C82.46,62.83,82.41,61.85,82.33,60.91ZM63.58,80.54h0a27.14,27.14,0,0,1-9,1.16V46.23a42,42,0,0,1,4.59.21l.64.08a17.85,17.85,0,0,1,3.74.86h0a11.81,11.81,0,0,1,7.49,7.29c.09.23.17.47.25.71a27.16,27.16,0,0,1,1.23,8.73C72.55,74.51,68.53,78.74,63.58,80.54Z"/></svg>