<svg xmlns="http://www.w3.org/2000/svg" viewBox="0 0 128 128"><defs><style>.a{fill:#0160aa;}.b{fill:#fff;}</style></defs><path class="a" d="M53.62,127.15l71.7-44.82A63.78,63.78,0,0,0,128,64c0-1.37-.06-2.72-.14-4.07L46,125.4A62.62,62.62,0,0,0,53.62,127.15Z"/><path class="a" d="M64,128c2,0,3.94-.1,5.87-.28l38.5-17.62A64.05,64.05,0,0,0,125,83.49L54.83,127.34A64.37,64.37,0,0,0,64,128Z"/><path class="a" d="M0,64A63.67,63.67,0,0,0,6.15,91.38L10.62,28.7A63.73,63.73,0,0,0,0,64Z"/><path class="a" d="M45,125.13,127.78,59a63.6,63.6,0,0,0-5.35-21.08l-83.77,84.9A63.45,63.45,0,0,0,45,125.13Z"/><path class="a" d="M33.16,120.08,63.39,83l.61.5-30.13,37c1.31.7,2.65,1.35,4,2L122.07,37.1a64.15,64.15,0,0,0-8.81-14L78.6,65.63,78,65.12l34.74-42.59a64.3,64.3,0,0,0-12.08-11L29.69,118C30.83,118.74,32,119.43,33.16,120.08Z"/><path class="a" d="M14.31,104.32l21.94-98A64.36,64.36,0,0,0,23,14.88L10.89,99.72Q12.5,102.11,14.31,104.32Z"/><path class="a" d="M106.5,111.83l-34.08,15.6A63.71,63.71,0,0,0,106.5,111.83Z"/><path class="a" d="M10.23,98.69l11.83-83A64.14,64.14,0,0,0,11.52,27.39L6.85,92.8A62.32,62.32,0,0,0,10.23,98.69Z"/><path class="a" d="M21.16,111.54,66.82.07C65.88,0,64.94,0,64,0A63.9,63.9,0,0,0,53.31.91l-34.88,108C19.31,109.82,20.22,110.69,21.16,111.54Z"/><path class="a" d="M24.44,114.29,81.55,2.46A63.53,63.53,0,0,0,67.66.11l-45.86,112C22.66,112.85,23.54,113.58,24.44,114.29Z"/><path class="a" d="M29,117.59,100,11.08a63.8,63.8,0,0,0-17.66-8.4L25.08,114.79Q27,116.26,29,117.59Z"/><path class="a" d="M17.8,108.26,52.42,1.07A63.15,63.15,0,0,0,37.16,5.9L15,105.1C15.86,106.19,16.82,107.24,17.8,108.26Z"/><path class="b" d="M10.62,28.7c.29-.44.6-.88.9-1.31"/><path class="b" d="M11.52,27.39c-.3.43-.61.87-.9,1.31L6.15,91.38c.22.48.46,1,.7,1.42Z"/><path class="b" d="M22.06,15.68l.92-.8"/><path class="b" d="M10.89,99.72,23,14.88l-.92.8-11.83,83C10.45,99,10.66,99.38,10.89,99.72Z"/><path class="b" d="M36.25,6.31l.91-.41"/><path class="b" d="M15,105.1,37.16,5.9l-.91.41-21.94,98Z"/><path class="b" d="M52.42,1.07l.89-.16"/><path class="b" d="M18.43,108.92,53.31.91l-.89.16L17.8,108.26C18,108.48,18.21,108.7,18.43,108.92Z"/><path class="b" d="M66.82.07l.84,0"/><path class="b" d="M21.8,112.09,67.66.11l-.84,0L21.16,111.54Z"/><path class="b" d="M81.55,2.46l.79.22"/><path class="b" d="M25.08,114.79,82.34,2.68l-.79-.22L24.44,114.29C24.65,114.46,24.86,114.63,25.08,114.79Z"/><path class="b" d="M29.69,118l71-106.47-.65-.47L29,117.59Z"/><path class="b" d="M64,83.52l-.61-.5L33.16,120.08l.71.39Z"/><path class="b" d="M78.6,65.63l34.66-42.49c-.17-.2-.36-.4-.53-.61L78,65.12Z"/><path class="b" d="M38.66,122.78l83.77-84.9-.36-.78L37.89,122.43Z"/><path class="b" d="M46,125.4l81.9-65.47c0-.32,0-.64-.08-1L45,125.13C45.32,125.23,45.64,125.31,46,125.4Z"/><path class="b" d="M54.83,127.34,125,83.49c.12-.38.24-.77.35-1.16l-71.7,44.82Z"/><path class="b" d="M72.42,127.43l34.08-15.6c.64-.56,1.26-1.14,1.87-1.73l-38.5,17.62C70.73,127.64,71.58,127.54,72.42,127.43Z"/><path class="b" d="M29.05,85.85c-13.35,0-22.41-8.19-22.41-21.54,0-12.92,9.7-22,22.48-22a24.58,24.58,0,0,1,10.05,2v6.4a11.86,11.86,0,0,0-9.91-5.25c-8,0-12.57,7.4-12.57,18,0,11.13,4.24,19.09,13.42,19.09a15.43,15.43,0,0,0,9-3.3l1.51,3.3c-1.7,1.38-4.93,3.31-11.61,3.31"/><path class="b" d="M63.58,80.55a27.14,27.14,0,0,1-9,1.16V46.23a26.9,26.9,0,0,1,9,1.15V43.15C62.71,43.08,61.86,43,61,43H45.62V85.07H62A11.79,11.79,0,0,0,63.58,85Zm9-16.45c0,10.41-4,14.64-9,16.44V85c8-.56,18.88-5.88,18.88-21.11,0-15.44-10.12-20-18.88-20.74v4.24c5,1.73,9,6,9,16.73"/><path class="b" d="M109.75,85.85c-13.35,0-22.41-8.19-22.41-21.54,0-12.92,9.7-22,22.48-22a24.64,24.64,0,0,1,10.05,2v6.4A11.87,11.87,0,0,0,110,45.43c-8,0-12.57,7.4-12.57,18,0,11.13,4.24,19.09,13.42,19.09a15.62,15.62,0,0,0,9-3.3l1.51,3.3c-1.77,1.38-4.93,3.31-11.61,3.31"/></svg>