<svg xmlns="http://www.w3.org/2000/svg" viewBox="0 0 721.98 439.23"><defs><style>.a{fill:#0b3d92;}.b{fill:#fff;}</style></defs><rect class="a" y="0.73" width="721.98" height="438.5"/><path class="b" d="M296.38,439.23,722,4.54V0h-2L289.88,439.23Z"/><path class="b" d="M27.78,439.23,56.58,0h-4.5L23.38,439.23Z"/><path class="b" d="M50.88,439.23,112.88,0h-4.4l-62,439.23Z"/><path class="b" d="M75.58,439.23,172.78,0h-4.9L70.78,439.23Z"/><path class="b" d="M102.38,439.23,241.28,0h-4.5L97.88,439.23Z"/><path class="b" d="M127.88,439.23,306.48,0h-4.9L123,439.23Z"/><path class="b" d="M157.38,439.23,380.58,0h-5.3L152.18,439.23Z"/><path class="b" d="M492,0h-5.7L197.48,439.23h5.7Z"/><path class="b" d="M594.78,0h-5.7L238,439.23h6.1Z"/><path class="b" d="M722,166.25V160.5L374.08,439.23H381Z"/><path class="b" d="M722,287.2v-5.34L472.08,439.23h8.5Z"/><path class="b" d="M722,401.2v-4.95l-91.9,42.88h10.5Z"/><path class="b" d="M161.48,301.54c-75.3,0-126.4-46.2-126.4-121.5,0-72.9,54.7-124.3,126.8-124.3,19.5,0,40.5,3.7,56.7,11.3v36.1c-8.1-10.5-23.9-29.6-55.9-29.6-45.4,0-70.9,41.7-70.9,101.6,0,62.8,23.9,107.7,75.7,107.7,18.2,0,40.9-9.3,51-18.6l8.5,18.6c-9.6,7.8-27.8,18.7-65.5,18.7"/><path class="b" d="M356.28,271.64c-16.2,5.7-34,6.5-50.6,6.5V78c16.6,0,34.8.8,50.6,6.5V60.64c-4.9-.4-9.7-.8-14.6-.8H255v237.3h92.4a66.28,66.28,0,0,0,8.9-.4Zm50.6-92.8c0,58.7-22.7,82.6-50.6,92.7v25.1c45.4-3.2,106.5-33.2,106.5-119.1,0-87.1-57.1-113-106.5-117v23.9c28.3,9.8,50.6,34.1,50.6,94.4"/><path class="b" d="M616.68,301.54c-75.3,0-126.4-46.2-126.4-121.5,0-72.9,54.7-124.3,126.8-124.3,19.4,0,40.5,3.7,56.7,11.3v36.1c-8.1-10.5-23.9-29.6-55.9-29.6-45.4,0-70.9,41.7-70.9,101.6,0,62.8,23.9,107.7,75.7,107.7,18.2,0,40.5-9.3,51-18.6l8.5,18.6c-10,7.8-27.8,18.7-65.5,18.7"/></svg>