<svg xmlns="http://www.w3.org/2000/svg" viewBox="0 0 721.98 438.5"><defs><style>.a{fill:#0b3d92;}.b{fill:#fff;}</style></defs><rect class="a" width="721.98" height="438.5"/><path class="b" d="M161.48,300.82c-75.3,0-126.4-46.2-126.4-121.5,0-72.9,54.7-124.3,126.8-124.3,19.5,0,40.5,3.7,56.7,11.3v36.1c-8.1-10.5-23.9-29.6-55.9-29.6-45.4,0-70.9,41.7-70.9,101.6,0,62.8,23.9,107.7,75.7,107.7,18.2,0,40.9-9.3,51-18.6l8.5,18.6c-9.6,7.8-27.8,18.7-65.5,18.7"/><path class="b" d="M356.28,270.92c-16.2,5.7-34,6.5-50.6,6.5V77.32c16.6,0,34.8.8,50.6,6.5V59.92c-4.9-.4-9.7-.8-14.6-.8H255v237.3h92.4a66.28,66.28,0,0,0,8.9-.4Zm50.6-92.8c0,58.7-22.7,82.6-50.6,92.7v25.1c45.4-3.2,106.5-33.2,106.5-119.1,0-87.1-57.1-113-106.5-117v23.9c28.3,9.8,50.6,34.1,50.6,94.4"/><path class="b" d="M616.68,300.82c-75.3,0-126.4-46.2-126.4-121.5,0-72.9,54.7-124.3,126.8-124.3,19.4,0,40.5,3.7,56.7,11.3v36.1c-8.1-10.5-23.9-29.6-55.9-29.6-45.4,0-70.9,41.7-70.9,101.6,0,62.8,23.9,107.7,75.7,107.7,18.2,0,40.5-9.3,51-18.6l8.5,18.6c-10,7.8-27.8,18.7-65.5,18.7"/></svg>